<svg id="レイヤー_1" data-name="レイヤー 1" xmlns="http://www.w3.org/2000/svg" viewBox="0 0 278 40"><defs><style>.cls-1{fill:#ff8400;}.cls-1,.cls-2{fill-rule:evenodd;}.cls-2{fill:#565759;}.cls-3{fill:#58595b;}</style></defs><title>アートボード 4</title><path class="cls-1" d="M16.39,12.35l1.81,7.06,8.26-3.49a28.5,28.5,0,0,1-5,7.58,18.22,18.22,0,0,1-5.57,4.18,12.09,12.09,0,0,1-5.41,1.18A8.16,8.16,0,0,1,6,27.44a7.15,7.15,0,0,1-2.68-3.6,9.74,9.74,0,0,1-.15-5.4,19.47,19.47,0,0,1,3.15-6.81l-1.1.4A29.08,29.08,0,0,0,.77,20.72a15.12,15.12,0,0,0-.5,7.13,10.22,10.22,0,0,0,2.66,5.23A11,11,0,0,0,8,36a15.3,15.3,0,0,0,6.58.25,21.54,21.54,0,0,0,7.32-2.8,30.68,30.68,0,0,0,7.23-6.23,31,31,0,0,0,5.58-8.43L37,26.63l6.77-2.45L37.32,2.32l-20.93,10"/><path class="cls-2" d="M10.86,10,8,11a19.93,19.93,0,0,0-3.52,7.22,8.93,8.93,0,0,0,.31,5.48A6.25,6.25,0,0,0,7.93,27a8.09,8.09,0,0,0,4.92.49,13.15,13.15,0,0,0,5.64-2.75,22.38,22.38,0,0,0,5.39-6.5,24.2,24.2,0,0,1-5.44,5.36,12.82,12.82,0,0,1-5.17,2.22,6.24,6.24,0,0,1-4.12-.55,4.85,4.85,0,0,1-2.31-3A9.43,9.43,0,0,1,7.16,17a24.3,24.3,0,0,1,3.7-7"/><path class="cls-3" d="M65.42,27.28A6.06,6.06,0,0,1,63.35,32a7.46,7.46,0,0,1-5.17,1.85,8.68,8.68,0,0,1-4.26-1.05,8,8,0,0,1-2.85-2.48l2.8-2.43a5.46,5.46,0,0,0,.57.71,5.09,5.09,0,0,0,3.74,1.57,3.5,3.5,0,0,0,2.39-.77,2.72,2.72,0,0,0,.88-2.13c0-1-.68-1.75-2-2.15-2.72-.8-4.18-1.24-4.37-1.33a7.22,7.22,0,0,1-2.69-2,5.67,5.67,0,0,1-.94-3.45,5.64,5.64,0,0,1,2-4.46,7.07,7.07,0,0,1,4.79-1.76,8.51,8.51,0,0,1,3.9.91,6.65,6.65,0,0,1,2.56,2l-2.38,2.54a8.87,8.87,0,0,0-1.15-.94,4.92,4.92,0,0,0-2.75-1,3.43,3.43,0,0,0-2,.55,2.22,2.22,0,0,0-1,2A2,2,0,0,0,56.35,20a14.68,14.68,0,0,0,3.46,1.08A8.16,8.16,0,0,1,64,23.24,5.63,5.63,0,0,1,65.42,27.28Z"/><path class="cls-3" d="M94.76,33.56l-4,.57V19.94a3.92,3.92,0,0,0-.89-2.85,3.59,3.59,0,0,0-2.64-.89,3.54,3.54,0,0,0-3.19,1.7,4.56,4.56,0,0,0-.73,2.44V33.55l-4,.7V20a4.19,4.19,0,0,0-.87-2.85,3.06,3.06,0,0,0-2.39-1h-.39a3.23,3.23,0,0,0-3,1.73,7,7,0,0,0-.7,3.31V33.55l-4.13.7V13.43l3.71-.63v2.64A9,9,0,0,1,72.78,14a5.4,5.4,0,0,1,3.71-1.46,6.75,6.75,0,0,1,3.53.74,6.42,6.42,0,0,1,2,2.45,7.26,7.26,0,0,1,11.29-.92,8.93,8.93,0,0,1,1.46,5.52Z"/><path class="cls-3" d="M115.09,33.58l-3.58.58,0-2.59a9.21,9.21,0,0,1-1.59,1.16,9.87,9.87,0,0,1-4.81,1.17,7.08,7.08,0,0,1-5.3-2.2,7.73,7.73,0,0,1-2.12-5.62,6.68,6.68,0,0,1,2.4-5.24,8.41,8.41,0,0,1,5.7-2.1,7.67,7.67,0,0,1,4.26,1,4,4,0,0,1,1,1l0-2.15a2.17,2.17,0,0,0-1.19-2.05,8.23,8.23,0,0,0-3.75-.64,13.5,13.5,0,0,0-4.23.71,14.56,14.56,0,0,0-1.75.73l1.07-4.31a20.19,20.19,0,0,1,2.27-.42,27.67,27.67,0,0,1,4.08-.39,7.52,7.52,0,0,1,5.67,2,7.82,7.82,0,0,1,1.91,5.63Zm-3.69-7.26a3.55,3.55,0,0,0-1.7-3,6.17,6.17,0,0,0-3.6-1.07A4.55,4.55,0,0,0,103,23.4a3.81,3.81,0,0,0-1.32,2.94,3.32,3.32,0,0,0,1.52,2.85,6.08,6.08,0,0,0,3.58,1A5.13,5.13,0,0,0,110,29.09,3.39,3.39,0,0,0,111.4,26.32Z"/><path class="cls-3" d="M131.66,12.62l-1.88,4.23a5.47,5.47,0,0,0-.76-.05,7.43,7.43,0,0,0-1.15.09,5.4,5.4,0,0,0-1.26.41,4.86,4.86,0,0,0-2.16,2.3,8.83,8.83,0,0,0-1,4.25v9.68l-4,.63V13.43l3.69-.65v4.31c.48-.75,1-1.5,1.46-2.25a6.42,6.42,0,0,1,2.38-1.67,11.9,11.9,0,0,1,2.64-.43A16.62,16.62,0,0,1,131.66,12.62Z"/><path class="cls-3" d="M147,29.64l-.68,3.94-1.1.12c-.45,0-.91.07-1.39.07a13.16,13.16,0,0,1-2.45-.21,5.75,5.75,0,0,1-2.25-.94,6.23,6.23,0,0,1-2.46-5.28v-11h-3.21l1.44-3.71h1.77V7.39l4-1v6.33h5.72v3.71h-5.72V26.92a4,4,0,0,0,.27,1.57A2.47,2.47,0,0,0,142,29.56a3.11,3.11,0,0,0,1,.34,6.93,6.93,0,0,0,1.22.1,11.57,11.57,0,0,0,1.94-.18Z"/><path class="cls-3" d="M161.8,12.62l-1.88,4.23a5.47,5.47,0,0,0-.76-.05,7.33,7.33,0,0,0-1.15.09,5.25,5.25,0,0,0-1.26.41,4.88,4.88,0,0,0-2.17,2.3,8.94,8.94,0,0,0-1,4.25v9.68l-4,.63V13.43l3.68-.65v4.31l1.47-2.25a6.34,6.34,0,0,1,2.38-1.67,11.9,11.9,0,0,1,2.64-.43A16.62,16.62,0,0,1,161.8,12.62Z"/><path class="cls-3" d="M183.51,23.27a10.51,10.51,0,0,1-3.2,7.66,11.09,11.09,0,0,1-15.6.05,10.29,10.29,0,0,1-3.28-7.68,10.83,10.83,0,0,1,3.12-7.73,10.15,10.15,0,0,1,7.65-3.29,11.1,11.1,0,0,1,8.15,3.14A10.6,10.6,0,0,1,183.51,23.27Zm-4,.05a6.93,6.93,0,0,0-2.05-5.06,6.84,6.84,0,0,0-5.08-2.08,6.36,6.36,0,0,0-4.84,2.14,7,7,0,0,0-2,4.9,6.86,6.86,0,0,0,2,5,7,7,0,0,0,9.88,0A6.62,6.62,0,0,0,179.46,23.32Z"/><path class="cls-3" d="M202.13,33.56l-3.71.62V31.75a6.46,6.46,0,0,1-2.31,2,6.61,6.61,0,0,1-3.25.92,6.83,6.83,0,0,1-5.65-2.4,8.92,8.92,0,0,1-1.8-5.75v-13l4.05-.44V26.77a4.3,4.3,0,0,0,1,3,3.44,3.44,0,0,0,2.72,1.15h.28a2.28,2.28,0,0,1,.34-.05,4.69,4.69,0,0,0,3.48-2.12,5.91,5.91,0,0,0,.94-3.34V13.43l3.89-.55Z"/><path class="cls-3" d="M222.08,33.56l-4,.47v-14a4.59,4.59,0,0,0-.93-3,3.22,3.22,0,0,0-2.62-1.12l-.34,0-.29,0a4.67,4.67,0,0,0-3.45,2.12,6.06,6.06,0,0,0-.94,3.35V33.58l-3.92.58V13.43l3.71-.63v2.3a19.91,19.91,0,0,1,1.57-1.46,7.16,7.16,0,0,1,9.2.55A7.31,7.31,0,0,1,221.87,18a12.65,12.65,0,0,1,.21,2.41Z"/><path class="cls-3" d="M246,33.58l-3.74.58V30.63l-.81.89a9,9,0,0,1-2.37,1.59A9.63,9.63,0,0,1,235,34a9.94,9.94,0,0,1-7.44-3.14,10.45,10.45,0,0,1-3-7.53,11,11,0,0,1,3-7.74,9.63,9.63,0,0,1,7.33-3.23,10.64,10.64,0,0,1,4.34.81,6.77,6.77,0,0,1,2.22,1.53l.63.83V6.22l4-.58Zm-3.5-10a7.16,7.16,0,0,0-2.17-5.27,6.85,6.85,0,0,0-5-2.16,6.49,6.49,0,0,0-5,2.06,6.78,6.78,0,0,0-1.81,4.8,7.5,7.5,0,0,0,1.87,5.23,6.18,6.18,0,0,0,4.75,2,7.48,7.48,0,0,0,5-1.91A6.12,6.12,0,0,0,242.54,23.53Z"/></svg>